{
    "asset" : {
        "generator" : "Khronos glTF Blender I/O v1.0.5",
        "version" : "2.0"
    },
    "scene" : 0,
    "scenes" : [
        {
            "name" : "Scene",
            "nodes" : [
                3
            ]
        }
    ],
    "nodes" : [
        {
            "mesh" : 0,
            "name" : "no_transformations"
        },
        {
            "children" : [
                0
            ],
            "name" : "Node.001"
        },
        {
            "children" : [
                1
            ],
            "name" : "Node"
        },
        {
            "children" : [
                2
            ],
            "name" : "TransformZUpToYUp",
            "rotation" : [
                0,
                180,
                0,
                1
            ]
        }
    ],
    "materials" : [
        {
            "doubleSided" : true,
            "emissiveFactor" : [
                0,
                0,
                0
            ],
            "name" : "3aa3a8be-62eb-4110-bbf8-7e9090a9fe39",
            "pbrMetallicRoughness" : {
                "baseColorFactor" : [
                    1,
                    0.8823529481887817,
                    0,
                    1
                ],
                "metallicFactor" : 0,
                "roughnessFactor" : 1
            }
        }
    ],
    "meshes" : [
        {
            "name" : "Mesh_0.001",
            "primitives" : [
                {
                    "attributes" : {
                        "POSITION" : 0,
                        "NORMAL" : 1,
                        "TEXCOORD_0" : 2
                    },
                    "indices" : 3,
                    "material" : 0
                }
            ]
        }
    ],
    "accessors" : [
        {
            "bufferView" : 0,
            "componentType" : 5126,
            "count" : 10499,
            "max" : [
                44.3865966796875,
                1.5,
                -1.236012578010559
            ],
            "min" : [
                5.699437618255615,
                0,
                -36.54902648925781
            ],
            "type" : "VEC3"
        },
        {
            "bufferView" : 1,
            "componentType" : 5126,
            "count" : 10499,
            "type" : "VEC3"
        },
        {
            "bufferView" : 2,
            "componentType" : 5126,
            "count" : 10499,
            "type" : "VEC2"
        },
        {
            "bufferView" : 3,
            "componentType" : 5123,
            "count" : 13416,
            "type" : "SCALAR"
        }
    ],
    "bufferViews" : [
        {
            "buffer" : 0,
            "byteLength" : 125988,
            "byteOffset" : 0
        },
        {
            "buffer" : 0,
            "byteLength" : 125988,
            "byteOffset" : 125988
        },
        {
            "buffer" : 0,
            "byteLength" : 83992,
            "byteOffset" : 251976
        },
        {
            "buffer" : 0,
            "byteLength" : 26832,
            "byteOffset" : 335968
        }
    ],
    "buffers" : [
        {
            "byteLength" : 362800,
            "uri" : "data:application/octet-stream;base64,"
        }
    ]
}
